<?xml version="1.0" encoding="iso-8859-1"?>
<!-- Generator: Adobe Illustrator 20.1.0, SVG Export Plug-In . SVG Version: 6.00 Build 0)  -->
<svg version="1.1" id="Phone-24" xmlns="http://www.w3.org/2000/svg" xmlns:xlink="http://www.w3.org/1999/xlink" x="0px" y="0px"
	 viewBox="0 0 30.879 30.888" style="enable-background:new 0 0 30.879 30.888;" xml:space="preserve">
<g>
	<path d="M23.486,18.708c-0.377-0.378-0.879-0.586-1.413-0.586c0,0-0.001,0-0.002,0c-0.534,0-1.036,0.209-1.413,0.586l-2.828,2.828
		l-8.485-8.485l2.828-2.828c0.78-0.78,0.78-2.05-0.001-2.83L7.929,3.15C7.552,2.773,7.05,2.565,6.516,2.565H6.515
		c-0.535,0-1.037,0.209-1.414,0.587L0.858,7.395c-0.129,0.129-1.247,1.339-0.716,3.997c0.626,3.129,3.246,7.019,7.787,11.56
		c6.499,6.499,10.598,7.937,12.953,7.937c1.63,0,2.426-0.689,2.604-0.867l4.242-4.242c0.378-0.378,0.587-0.881,0.586-1.416
		c0-0.535-0.208-1.037-0.586-1.415L23.486,18.708z M22.072,28.607c-0.028,0.029-3.409,2.249-12.729-7.07
		c-9.521-9.52-7.067-12.729-7.071-12.729l4.243-4.244l4.243,4.244l-3.535,3.535c-0.391,0.391-0.391,1.023,0,1.414l9.899,9.899
		c0.391,0.391,1.023,0.391,1.414,0l3.535-3.536l4.243,4.244L22.072,28.607z"/>
	<path d="M22.879,0c-4.411,0-8,3.589-8,8s3.589,8,8,8s8-3.589,8-8S27.29,0,22.879,0z M22.879,14c-3.309,0-6-2.691-6-6s2.691-6,6-6
		s6,2.691,6,6S26.188,14,22.879,14z"/>
	<path d="M21.879,8.586l-1.293-1.293l-1.414,1.414l2,2C21.367,10.902,21.623,11,21.879,11s0.512-0.098,0.707-0.293l4-4l-1.414-1.414
		L21.879,8.586z"/>
</g>
</svg>
